<svg width="143" height="54" viewBox="0 0 143 54" fill="none" xmlns="http://www.w3.org/2000/svg">
<path d="M74.0225 6.98495C75.8863 6.98495 77.4016 5.56531 77.4016 3.81897C77.4016 2.07262 75.8863 0.658911 74.0225 0.658911C72.1585 0.658911 70.6496 2.07262 70.6432 3.81897C70.6432 5.56531 72.1585 6.98495 74.0225 6.98495ZM87.501 34.8968H87.527C88.8267 34.8968 89.9805 34.5879 90.8745 34.1899C91.7748 33.786 92.4087 33.3227 92.732 32.9069C92.9286 32.6336 93.0553 32.3069 93.0553 31.9565C93.0553 31.6951 92.992 31.4278 92.8588 31.1605C92.5291 30.5487 91.8317 30.2517 91.2168 30.2398C91.1032 30.2398 90.9886 30.252 90.8808 30.2754C90.5449 30.3645 90.3102 30.4714 90.0756 30.5427C89.8348 30.6199 89.5811 30.6733 89.1437 30.6733C88.4273 30.6733 87.9961 30.4119 87.7109 30.1446C87.6607 30.0911 87.2227 29.5803 87.0578 28.9388C86.7916 27.8815 86.7725 26.3728 86.7598 25.3155C86.7793 24.9294 86.7793 3.59904 86.7793 3.02287C86.7793 2.23285 86.3482 1.59728 85.7459 1.22307C85.1436 0.83697 84.3829 0.664712 83.6284 0.664712C82.8614 0.664712 82.0878 0.842917 81.4792 1.22307C80.8643 1.59133 80.4079 2.2091 80.4142 2.98723V28.2379C80.4142 29.6457 80.839 31.297 81.9548 32.6157C83.0643 33.9343 84.8775 34.8966 87.5022 34.8966L87.501 34.8968ZM100.531 14.1009C102.128 11.9625 103.802 11.7071 104.588 11.7011C105.875 11.7133 107.181 12.4971 107.555 14.3741C107.618 14.6889 107.644 14.9978 107.644 15.2948C107.644 16.5897 107.112 17.7124 106.313 18.5677C104.405 20.5516 101.748 21.1159 98.9396 21.3951C98.9396 21.1635 98.9396 20.9259 98.9396 20.6883C98.9396 18.3717 99.2757 15.7581 100.531 14.1009H100.531ZM96.3149 31.8732C98.4071 33.7324 101.26 34.8669 104.829 34.8669H104.846C106.786 34.8669 108.586 34.5521 109.936 34.0294C110.608 33.7621 111.173 33.4473 111.591 33.073C112.003 32.6988 112.282 32.2414 112.282 31.7306C112.282 31.6534 112.282 31.5702 112.256 31.4871C112.123 30.6199 111.362 30.0318 110.5 30.0496C110.284 30.0496 110.069 30.0793 109.853 30.1446C108.794 30.4594 107.774 30.6317 106.525 30.6317C106.17 30.6317 105.808 30.6195 105.415 30.5902C102.778 30.3942 101.225 28.9092 100.287 27.3886C99.8236 26.6342 99.5193 25.8739 99.3418 25.2917C99.2589 25.0363 99.2022 24.8106 99.1644 24.6383C102.772 24.4959 105.891 24.1038 108.839 22.6425C110.348 21.8525 112.212 20.5754 113.175 18.7994C113.778 17.647 114.095 16.3224 114.095 15.1226C114.095 14.7424 114.062 14.3741 113.999 14.0296C113.384 10.7745 110.157 8.30351 105.161 8.31538C101.687 8.31538 97.2172 9.59842 94.491 13.5485C93.445 15.0869 92.0375 18.0391 92.0375 21.7694C92.0375 22.6603 92.1204 23.5929 92.3039 24.5611C92.9062 27.4361 94.2312 30.0081 96.3169 31.8732L96.3149 31.8732ZM34.5034 33.9462C35.1057 34.3323 35.8665 34.5046 36.6209 34.5046C37.3881 34.5046 38.1615 34.3264 38.7764 33.9462C39.385 33.578 39.8416 32.9543 39.8353 32.1821C39.8353 32.1821 39.8353 18.3717 39.8353 18.3064C39.8726 17.2372 40.1776 15.8057 40.856 14.683C41.5407 13.5544 42.5233 12.7585 44.0703 12.7525C44.7804 12.7586 45.2684 12.9664 45.6678 13.299C46.2638 13.8039 46.6126 14.6474 46.7963 15.5027C46.9739 16.3581 46.9929 17.2075 46.9929 17.6886C46.9929 17.8014 46.9929 31.7722 46.9929 32.1464C46.9929 32.9483 47.4557 33.5839 48.0897 33.9522C48.7301 34.3323 49.5288 34.5046 50.3277 34.5046C51.1392 34.5046 51.957 34.3264 52.6101 33.9522C53.2504 33.5839 53.7449 32.9662 53.7386 32.1821V18.2945C53.7823 17.2312 54.0872 15.7997 54.7593 14.683C55.4503 13.5544 56.4329 12.7585 57.9736 12.7525C58.6837 12.7586 59.1782 12.9664 59.5775 13.299C60.1671 13.8039 60.5222 14.6533 60.6998 15.5087C60.8835 16.364 60.9026 17.2075 60.9026 17.6886C60.9026 17.8014 60.9026 31.2555 60.9026 32.1464C60.9026 32.9483 61.3717 33.5839 62.0056 33.9522C62.6398 34.3323 63.4449 34.5046 64.2436 34.5046C65.0551 34.5046 65.8731 34.3264 66.5197 33.9522C67.1663 33.5839 67.6608 32.9662 67.6545 32.1821V18.5558C67.6545 15.1047 66.9318 12.5327 65.5814 10.7923C64.2246 9.05194 62.2213 8.20253 59.8628 8.20848C57.5869 8.20848 55.8498 9.23608 54.6325 10.4122C53.7955 11.22 53.1934 12.0932 52.794 12.7822C52.2296 11.3982 51.4308 10.3172 50.4101 9.55686C49.1865 8.64803 47.6586 8.20848 45.9468 8.20848C43.0305 8.21456 41.0335 9.87759 39.8099 11.4101V11.2734C39.8099 10.4774 39.385 9.84781 38.7827 9.4736C38.1806 9.08749 37.4261 8.91524 36.6717 8.91524C35.8982 8.91524 35.1247 9.09345 34.516 9.4736C33.9011 9.84188 33.451 10.4596 33.451 11.2378C33.451 11.2378 33.451 31.5702 33.451 32.1464C33.451 32.9364 33.8758 33.5719 34.4781 33.9462L34.5034 33.9462ZM76.15 9.4736C75.5476 9.08749 74.7933 8.91524 74.0324 8.91524C73.2652 8.91524 72.4919 9.09345 71.8832 9.4736C71.2683 9.84188 70.8181 10.4596 70.8181 11.2378C70.8181 11.2378 70.8181 31.5702 70.8181 32.1464C70.8181 32.9364 71.243 33.5719 71.8453 33.9462C72.4474 34.3323 73.2083 34.5045 73.9626 34.5045C74.7298 34.5045 75.5033 34.3263 76.112 33.9462C76.7269 33.5779 77.1833 32.9542 77.177 32.182C77.177 32.182 77.177 11.8496 77.177 11.2734C77.177 10.4774 76.7522 9.84781 76.15 9.4736ZM142.199 20.2546C142.173 20.1121 142.072 19.9932 141.926 19.9517C141.78 19.9102 141.622 19.9456 141.514 20.0526C141.514 20.0526 141.425 20.1476 141.235 20.3259C141.051 20.504 140.766 20.7714 140.392 21.104C139.637 21.7812 138.502 22.7494 137 23.9077C135.935 24.7333 134.679 25.654 133.24 26.64C133.208 26.248 133.145 25.8797 133.056 25.5352C132.676 24.0858 131.769 22.987 130.666 22.1078C128.999 20.7892 126.862 19.9219 125.113 18.9775C124.231 18.5023 123.458 18.0152 122.881 17.4688C122.304 16.9163 121.936 16.3223 121.822 15.5858C121.796 15.4492 121.79 15.3066 121.79 15.1641C121.79 14.4038 122.1 13.6078 122.76 13.0079C123.115 12.6871 124.173 12.0396 125.67 12.0396C127.527 12.0396 129.1 12.8 129.981 12.8C130.976 12.8177 131.838 12.2713 132.098 11.3684C132.149 11.1902 132.175 11.0061 132.175 10.8279C132.175 9.80029 131.262 8.84396 130.019 8.55289C130.019 8.55289 128.897 8.19649 126.526 8.19649C123.223 8.20257 120.516 8.96275 118.614 10.2992C116.712 11.6357 115.64 13.5603 115.64 15.7699C115.64 16.3758 115.723 17.0054 115.881 17.647C116.598 20.3734 119.463 21.8524 122.107 23.177C123.438 23.8364 124.738 24.4601 125.708 25.1313C126.691 25.8084 127.312 26.5093 127.445 27.3291C127.465 27.4715 127.476 27.6082 127.476 27.7448C127.476 28.4933 127.153 29.1883 126.468 29.7288C125.777 30.2693 124.686 30.6495 123.146 30.6732H123C121.32 30.6793 119.881 30.2218 118.936 29.8357C118.524 29.6516 118.099 29.5625 117.7 29.5625C116.698 29.5503 115.861 30.1921 115.728 31.1247C115.712 31.2139 115.708 31.3029 115.708 31.392C115.708 32.0632 116.089 32.6156 116.609 33.0433C117.395 33.6848 118.511 34.1184 119.569 34.4095C107.891 39.8801 91.6741 44.8222 71.1647 44.8222V44.8283V44.8222C50.4587 44.8222 34.1209 39.7851 22.4238 34.2491C24.833 33.8214 26.7793 32.9126 28.2312 31.6771C30.2853 29.9367 31.3313 27.5667 31.325 25.1075C31.325 24.5492 31.2748 23.9789 31.1659 23.4087C30.7983 21.5198 29.7015 20.0229 28.2877 18.7993C26.1702 16.9579 23.3362 15.6689 20.9715 14.374C19.7923 13.7266 18.7272 13.0791 17.9411 12.3901C17.1485 11.7011 16.6413 10.9764 16.4892 10.1626C16.4453 9.94285 16.4194 9.71118 16.4194 9.47952C16.4194 8.43409 16.8504 7.31739 17.8015 6.46204C18.7461 5.60669 20.2234 4.98893 22.3979 4.98299C23.5771 4.98299 24.9591 5.16713 26.5568 5.60074C27.0197 5.72543 27.4444 5.79082 27.8375 5.79082C28.9342 5.80856 29.7522 5.23841 30.0818 4.42464C30.2019 4.13359 30.2657 3.84252 30.2657 3.56335C30.2657 2.86242 29.8726 2.27437 29.3209 1.85859C28.7694 1.44279 28.0594 1.1636 27.3112 1.01511C25.8214 0.735921 24.2048 0.545843 22.5056 0.539917C22.4894 0.539917 22.4747 0.539917 22.4619 0.539917C17.9225 0.539917 14.6257 1.73384 12.4702 3.51583C10.3083 5.29187 9.30663 7.64409 9.30663 9.88939C9.30663 10.3883 9.35691 10.8814 9.4527 11.3625C10.1185 14.6413 13.0159 16.7381 15.9702 18.437C18.9372 20.1298 22.031 21.502 23.2039 23.0523C23.8442 23.8779 24.1485 24.8758 24.1485 25.8381C24.1485 26.8182 23.8252 27.7508 23.2356 28.4161C22.1197 29.6753 20.015 30.5248 17.7516 30.5248C16.3188 30.5248 14.8352 30.1921 13.4786 29.4377C13.4022 29.3903 13.1996 29.2892 13.1806 29.2774C9.92824 27.2993 7.30985 25.4342 5.33189 23.9077C3.82932 22.7494 2.70085 21.7812 1.94632 21.104C1.56605 20.7714 1.28073 20.504 1.09684 20.3259C0.906625 20.1477 0.81785 20.0526 0.81785 20.0526C0.71073 19.9457 0.551672 19.9101 0.405755 19.9517C0.26618 19.9934 0.15858 20.112 0.139589 20.2546C0.0568774 20.7833 0 21.4485 0 22.2207C0 22.2802 0 22.3394 0 22.3989V22.4524C0.0389685 24.4542 0.760868 25.9986 2.70718 27.6855C3.17639 28.131 29.2839 53.0016 71.1649 53.0075C113.052 53.0014 139.154 28.131 139.623 27.6855C141.569 25.9986 142.292 24.4542 142.33 22.4524V22.2208C142.33 21.4486 142.273 20.7833 142.197 20.2547" fill="white"/>
</svg>
