<svg width="700" height="700" viewBox="0 0 700 700" fill="none" xmlns="http://www.w3.org/2000/svg">
<path d="M316.665 650.842C266.381 650.842 217.447 646.203 174.508 636.365C179.653 610.377 188.002 565.814 192.862 527.902C196.837 496.885 196.257 466.637 194.893 445.471C195.702 444.503 196.397 443.437 197.012 442.265C197.169 441.965 197.238 441.588 197.238 441.137C197.238 438.469 194.876 433.246 194.698 426.667C194.138 406.253 192.725 372.783 192.725 362.062C192.724 360.15 192.769 358.963 192.872 358.703C193.14 358.018 196.696 357.871 201.642 357.871C203.48 357.871 205.507 357.893 207.633 357.912C209.756 357.932 211.973 357.952 214.191 357.952C217.103 357.952 220.014 357.917 222.705 357.804C222.712 357.802 222.717 357.802 222.724 357.802C222.736 357.802 222.745 357.802 222.757 357.8C228.432 357.557 233.119 356.956 234.768 355.569L234.773 355.566L234.777 355.561C234.78 355.559 234.784 355.556 234.787 355.553L234.789 355.551C234.797 355.544 234.808 355.536 234.816 355.528L234.818 355.526C234.908 355.445 234.989 355.363 235.058 355.278C237.615 352.175 245.37 302.368 245.37 300.089C245.37 300.086 245.37 300.083 245.37 300.083V300.079V300.078C245.363 299.768 245.078 299.436 244.598 299.095C244.105 298.736 243.402 298.359 242.56 297.985L242.708 295.709C242.708 295.709 246.544 291.055 248.509 287.882C248.556 287.808 248.599 287.735 248.642 287.664C248.644 287.661 248.647 287.656 248.647 287.656C249.297 286.558 249.593 285.7 249.641 285.054V285.053C249.721 283.953 249.083 283.468 248.264 283.468C248.245 283.468 248.226 283.468 248.207 283.468C249.639 282.322 249.318 279.735 247.061 279.735C246.829 279.735 246.575 279.763 246.302 279.822C247.469 277.832 246.183 275.992 244.442 275.992C244.088 275.992 243.716 276.068 243.341 276.233C243.664 274.368 242.216 272.863 240.244 272.863C239.481 272.863 238.64 273.089 237.793 273.604C238.019 271.773 237.281 270.918 236.009 270.918C235.902 270.918 235.791 270.923 235.677 270.937C234.23 271.088 225.88 280.445 225.975 282.736C226.072 285.026 229.797 291.263 229.985 292.669C229.994 292.741 229.987 292.881 229.966 293.082H229.965C229.923 293.482 229.821 294.131 229.673 294.969C228.627 295.012 227.892 295.235 227.655 295.696C227.655 295.696 220.19 330.65 219.015 331.291C218.73 331.445 217.477 331.521 215.529 331.521C212.369 331.521 207.384 331.324 201.755 330.955C203.544 329.025 205.245 326.955 206.845 324.741C206.185 324.811 205.531 324.845 204.89 324.845C179.574 324.85 167.972 272.346 159.602 267.697C154.555 264.895 148.586 263.567 142.535 263.567C128.516 263.567 114.033 270.685 109.408 283.093C105.813 292.738 108.257 304.888 110.154 315.576L110.153 315.574C110.49 317.463 110.808 319.307 111.074 321.082C98.8505 316.093 86.5712 310.989 84.2222 309.377C79.6783 306.26 47.5043 280.717 46.2317 279.852C46.1796 279.816 46.1115 279.799 46.0291 279.799C45.8832 279.799 45.6922 279.852 45.4647 279.953C41.8146 276.677 38.9634 274.004 38.5583 273.296C37.9372 272.211 36.988 270.867 35.8043 269.576C53.292 230.51 76.0479 193.094 101.466 159.124C161.596 78.7616 229.683 47.4631 291.127 47.4631C346.976 47.4631 397.338 73.3207 431.253 111.692C426.832 116.255 423.64 119.552 423.64 119.552L406.155 134.709C405.443 135.327 404.573 136.077 403.586 136.929L400.441 131.613C400.441 131.613 378.479 149.527 372.314 153.051C366.15 156.573 358.899 160.28 358.899 160.28V155.264C358.899 155.264 358.987 155.277 359.146 155.277C360.149 155.277 364.031 154.805 367.087 147.888C370.627 139.878 365.536 113.762 365.536 113.762C365.536 113.762 364.669 116.631 357.503 117.332C357.141 117.369 356.784 117.385 356.429 117.385C354.359 117.385 352.419 116.823 350.504 116.264C348.587 115.702 346.695 115.142 344.716 115.142C342.932 115.142 341.077 115.598 339.076 116.922C336.255 118.788 336.148 124.59 337.124 128.324C337.496 129.747 338.281 133.36 337.285 134.551C337.221 134.627 337.15 134.66 337.074 134.66C336.526 134.66 335.666 132.965 335.081 132.565C334.59 132.227 333.942 132.002 333.273 132.002C331.673 132.002 329.951 133.293 329.96 137.408C329.981 144.967 337.14 145.148 337.83 145.148C337.864 145.148 337.881 145.148 337.881 145.148C338.989 153.79 335.89 166.016 335.89 166.016C335.89 166.016 317.356 170.515 310.997 174.739C303.268 179.868 290.213 191.506 275.495 209.387L276.126 210.437L267.418 217.896C267.418 217.896 225.215 193.278 225.02 193.151C223.234 191.994 223.232 184.101 222.073 182.684C220.972 181.344 216.735 179.918 214.699 179.918C214.585 179.918 214.478 179.921 214.378 179.931C212.506 180.102 211.03 181.099 210.924 182.373C209.927 181.596 208.976 181.28 208.15 181.28C205.896 181.28 204.565 183.633 205.69 185.336C205.395 185.252 205.113 185.212 204.845 185.212C202.472 185.212 201.271 188.297 203.179 189.935C203.176 189.935 203.172 189.935 203.172 189.935C200.488 189.935 199.67 193.52 202.244 194.954C200.393 195.518 200.595 198.487 202.289 199.668C204.36 201.112 212.615 204.073 216.466 204.073C216.542 204.073 216.616 204.071 216.688 204.069C216.737 204.068 216.787 204.066 216.834 204.064L216.898 204.058C217.019 204.05 217.134 204.038 217.243 204.022L217.35 204.01C217.95 204.552 265.785 244.634 270.137 244.634C270.149 244.634 270.159 244.634 270.172 244.634H270.175C270.184 244.634 270.194 244.634 270.203 244.634C270.21 244.634 270.218 244.634 270.225 244.634C274.061 244.432 283.372 236.674 289.013 231.893L292.235 237.255L308.598 231.249C308.598 231.261 308.605 232.005 308.605 233.334C308.605 242.078 308.318 276.117 303.968 293.016C303.968 293.016 304.491 293.258 305.509 293.655C295.198 307.225 263.133 350.197 261.025 362.665C258.506 377.539 273.438 455.734 273.438 455.734L295.671 454.163C295.671 454.163 291.741 388.045 295.265 376.304C298.789 364.562 337.631 341.667 337.631 341.667C337.631 341.667 360.042 418.571 360.546 424.569C361.049 430.565 365.581 502.528 365.581 502.528L389.752 500.61C389.752 500.61 393.276 422.41 393.276 413.295C393.276 405.379 391.378 317.888 390.877 294.978C393.133 294.38 395.418 293.728 397.739 293.016C397.739 293.016 392.723 261.398 392.723 243.015C392.723 224.631 393.108 194.484 393.108 194.484C393.108 194.484 407.019 174.666 417.44 160.328L415.979 157.863C422.456 151.641 428.566 145.879 430.325 144.371C430.348 144.351 430.374 144.328 430.403 144.3C431.644 143.177 437.115 135.862 443.506 127.101C451.466 138.261 458.125 150.21 463.268 162.681C474.893 190.871 498.726 209.647 526.978 226.497C524.864 233.008 528.234 241.657 534.133 242.857C533.086 250.549 531.712 264.204 534.191 269.81C537.246 276.727 541.13 277.199 542.131 277.199C542.29 277.199 542.376 277.188 542.376 277.188V285.496C542.376 285.496 533.086 278.983 527.234 274.973C521.397 270.973 452.548 197.01 452.548 197.01L445.153 205.711V205.71L439.572 212.279C449.993 226.617 508.167 316.406 508.167 316.406C508.167 316.465 508.554 346.573 508.554 364.938C508.554 383.32 503.537 414.938 503.537 414.938C503.623 414.965 503.713 414.993 503.798 415.019C503.86 415.037 503.915 415.054 503.977 415.073C522.575 420.727 539.098 422.617 552.88 422.619C552.884 422.619 552.887 422.619 552.887 422.619C552.891 422.619 552.892 422.619 552.892 422.619C580.673 422.617 597.308 414.938 597.308 414.938C592.964 398.069 592.672 348.07 592.67 334.946C592.67 332.911 592.677 331.763 592.677 331.763L632.609 290.349C680.781 329.655 714.624 389.626 693.675 509.074C678.437 595.963 489.604 650.842 316.665 650.842ZM155.924 631.673C104.917 617.537 64.2432 595.257 42.7782 563.747C-15.583 478.077 -8.49363 376.893 29.7285 283.74C31.2853 283.91 32.3252 284.017 32.3252 284.017L36.4262 288.878C35.7003 290.103 35.356 291.174 35.6693 291.857C35.6712 291.86 35.6726 291.864 35.6747 291.867C35.678 291.874 35.6814 291.882 35.6847 291.888L35.6854 291.89C35.6854 291.89 35.6882 291.895 35.6896 291.898L35.6909 291.9C35.6922 291.903 35.6942 291.907 35.6956 291.91C37.1899 294.757 64.5559 334.958 68.7406 337.321C72.9232 339.686 116.064 370.092 118.155 372.653C119.642 374.474 122.61 407.79 122.611 428.697C122.611 429.008 122.61 429.316 122.61 429.621C122.577 437.008 118.472 442.703 118.467 444.661C118.467 444.845 118.503 444.997 118.581 445.112C118.983 445.705 119.504 446.314 120.152 446.925C116.038 458.985 113.361 472.075 110.894 481.214C106.086 499.027 94.0662 548.146 91.3939 548.401C91.3797 548.403 91.3648 548.403 91.3493 548.403C88.3489 548.401 52.918 524.473 50.7925 523.714C50.6973 523.68 50.5906 523.663 50.4724 523.663C50.1585 523.663 49.7689 523.778 49.3273 523.983L42.2333 517.847L35.036 525.4L41.0942 531.938C40.9146 532.33 40.8431 532.653 40.91 532.875C41.4008 534.51 79.9153 581.401 101.697 581.396C103.65 581.396 105.47 581.019 107.116 580.197C126.964 570.291 148.22 504.814 151.303 504.814C151.324 504.814 151.345 504.818 151.364 504.824C153.521 505.509 155.063 588.949 155.924 631.673ZM565.384 287.938C565.384 287.938 562.286 275.712 563.394 267.07C563.394 267.07 563.413 267.07 563.448 267.07C564.042 267.07 569.444 266.935 570.935 262.057C573.497 261.23 577.18 259.475 579.97 255.826C588.638 260.667 597.277 265.695 605.743 271.098C596.29 277.415 588.362 282.176 584.054 283.576C573.68 286.951 565.384 287.938 565.384 287.938Z" fill="#FAC1E3"/>
<path d="M39.0938 379.222C31.7816 376.829 28.9643 366.262 32.8012 355.619C36.6375 344.977 45.6767 338.29 52.9868 340.683C60.2989 343.074 63.1165 353.641 59.2793 364.284C55.441 374.927 46.4039 381.616 39.0938 379.222Z" fill="#F9FDFA"/>
<path d="M48.5799 462.565C35.1318 464.046 22.3036 449.378 19.9289 429.804C17.5537 410.231 26.5302 393.16 39.9781 391.68C53.4256 390.199 56.7798 405.483 59.1545 425.058C61.5311 444.632 62.0273 461.083 48.5799 462.565Z" fill="#F9FDFA"/>
<path d="M61.2037 486.81C57.4868 488.954 52.6493 487.824 50.3963 484.284C48.1445 480.743 49.3309 476.134 53.0463 473.986C56.7632 471.842 61.6007 472.972 63.8537 476.513C66.1054 480.053 64.9191 484.662 61.2037 486.81Z" fill="#F9FDFA"/>
<path d="M583.186 248.982C586.309 236.43 578.51 231.108 574.86 229.835C574.58 225.721 572.698 221.27 567.232 218.768C558.217 214.638 539.84 213.978 530.308 221.576C523.062 227.355 526.555 241.486 534.278 242.887C541.676 244.227 565.443 259.742 567.899 262.76C567.899 262.76 580.062 261.55 583.186 248.982Z" fill="#3D4777"/>
<path d="M571.27 252.423C566.085 249.13 563.022 239.733 570.515 232.682C553.775 241.048 535.377 239.373 527.523 225.178C524.402 231.824 527.874 241.724 534.278 242.885C541.676 244.227 565.443 259.742 567.9 262.76C567.9 262.76 580.061 261.548 583.186 248.98C583.423 248.033 583.578 247.139 583.696 246.274C580.999 251.16 576.861 254.554 571.27 252.423Z" fill="#2B2745"/>
<path d="M552.987 224.061C547.999 224.061 543.955 222.745 543.955 221.121C543.955 219.498 547.999 218.182 552.987 218.182C557.976 218.182 562.02 219.498 562.02 221.121C562.02 222.745 557.976 224.061 552.987 224.061Z" fill="#677A9D"/>
<path d="M574.913 239.734C572.75 239.734 570.998 238.42 570.998 236.794C570.998 235.17 572.75 233.855 574.913 233.855C577.075 233.855 578.828 235.17 578.828 236.794C578.828 238.42 577.075 239.734 574.913 239.734Z" fill="#677A9D"/>
<path d="M534.97 237.357C534.97 237.357 530.649 261.8 534.189 269.81C537.727 277.818 542.375 277.187 542.375 277.187V285.619C542.375 285.619 532.144 287.743 531.185 293.71C529.994 301.133 527.493 314.528 544.112 318.925C560.731 323.323 567.268 310.421 571.314 303.934C575.361 297.448 565.382 287.938 565.382 287.938C565.382 287.938 562.285 275.712 563.393 267.07C563.393 267.07 571.294 267.271 571.314 259.33C571.332 251.816 565.583 253.718 565.32 255.7C565.32 255.7 564.16 253.505 564.152 250.246C564.138 246.35 562.651 241.611 560.659 239.468C545.191 246.23 534.97 237.357 534.97 237.357Z" fill="#F9AF9C"/>
<path d="M564.138 281.733C563.49 277.804 562.906 272.651 563.284 268.204C554.606 278.302 542.375 277.188 542.375 277.188V285.588C549.674 287.995 557.471 285.15 564.138 281.733Z" fill="#F68A72"/>
<path d="M567.531 257.316C566.53 257.02 565.275 258.154 564.722 259.847C564.169 261.542 564.53 263.154 565.527 263.45C566.027 263.599 567.448 262.271 567.947 260.736C568.447 259.203 568.03 257.464 567.531 257.316Z" fill="#F68A72"/>
<path d="M449.578 199.817C448.009 198.406 449.312 190.61 448.4 189.037C447.485 187.465 443.135 185.273 441.258 185.164C439.381 185.054 437.758 185.815 437.443 187.058C434.244 183.631 430.652 186.669 431.786 189.199C429.051 187.934 426.749 191.244 428.545 193.363C425.89 192.955 424.485 196.375 426.791 198.18C424.872 198.459 424.58 201.421 426.058 202.841C428.016 204.726 436.869 209.464 440.21 209.383C441.33 209.355 446.91 218.804 446.91 218.804C450.254 215.359 454.53 212.018 458.004 208.667C458.004 208.667 450.118 200.3 449.578 199.817Z" fill="#F9AF9C"/>
<path d="M444.678 192.464C439.868 193.993 439.804 201.214 433.421 199.448C433.222 196.726 436.753 192.645 437.213 188.787C434.741 191.582 431.426 201.228 429.903 201.736C428.382 202.245 426.661 202.177 425.14 200.85C425.211 201.581 425.511 202.317 426.058 202.841C428.016 204.726 436.869 209.464 440.21 209.383C441.33 209.355 446.909 218.804 446.909 218.804C448.705 216.955 450.766 215.137 452.828 213.331C449.172 206.221 436.311 203.302 444.678 192.464Z" fill="#F68A72"/>
<path d="M699.028 219.684C698.368 218.966 699.993 211.901 698.591 211.677C697.186 211.455 693.758 211.779 693.758 211.779C693.758 211.779 691.448 208.515 689.61 208.4C687.773 208.285 679.466 211.988 678.375 213.408C677.283 214.826 678.294 221.851 676.583 223.035C675.904 223.504 667.787 231.251 656.751 241.718C659.662 244.848 662.812 247.832 665.988 250.819C676.051 240.423 684.314 232.313 685.507 232.487C688.739 232.962 699.165 229.968 699.765 227.438C700.368 224.906 699.689 220.4 699.028 219.684Z" fill="#F9AF9C"/>
<path d="M699.177 213.777C696.721 213.927 694.142 214.297 692.16 215.241C693.803 218.375 695.447 223.073 693.803 224.639C688.872 227.773 688.872 218.375 683.937 218.375C685.467 225.655 677.051 231.57 669.254 229.853C665.912 233.019 661.615 237.103 656.751 241.718C659.662 244.848 662.812 247.832 665.988 250.819C676.051 240.423 684.314 232.313 685.507 232.487C688.739 232.962 699.165 229.968 699.765 227.437C700.368 224.906 699.689 220.4 699.028 219.684C698.593 219.211 699.148 215.987 699.177 213.777Z" fill="#F68A72"/>
<path d="M615.009 615.104L619.487 635.227L608.543 638.103L600.139 617.978L615.009 615.104Z" fill="#F9AF9C"/>
<path d="M534.762 587.12L541.024 604.2L530.223 609.343L520.397 590.616L534.762 587.12Z" fill="#F9AF9C"/>
<path d="M619.489 617.735L598.34 624.452C598.34 624.452 580.511 552.441 576.987 540.699C573.461 528.956 549.819 458.649 549.819 458.649C549.819 458.649 523.141 507.27 522.638 513.267C522.133 519.265 543.348 590.107 543.348 590.107L515.643 598.687C515.643 598.687 484.719 520.987 484.719 511.872C484.719 502.757 510.518 411.437 510.518 411.437H592.598C592.598 411.437 608.71 512.189 611.229 527.061C613.747 541.933 619.489 617.735 619.489 617.735Z" fill="#2B2745"/>
<path d="M529.786 450.5C531.081 455.633 506.098 497.05 503.45 500.07C501.238 502.596 491.208 510.654 488.966 507.824C487.905 506.487 510.521 434.864 512.293 432.819C515.65 428.946 528.494 445.369 529.786 450.5Z" fill="#3D4777"/>
<path d="M588.756 520.954C584.585 522.165 560.133 455.674 560.133 448.564C560.133 441.451 575.457 434.057 580.132 435.755C594.93 441.122 592.928 519.744 588.756 520.954Z" fill="#3D4777"/>
<path d="M592.678 331.763C592.678 331.763 592.292 395.452 597.308 414.938C597.308 414.938 559.877 432.218 503.537 414.938C503.537 414.938 508.555 383.32 508.555 364.937C508.555 346.555 508.167 316.405 508.167 316.405C508.167 316.405 449.993 226.617 439.573 212.278L452.548 197.01C452.548 197.01 521.397 270.973 527.234 274.973C533.086 278.983 542.377 285.496 542.377 285.496L547.09 306.116L565.384 287.938C565.384 287.938 573.68 286.951 584.054 283.575C600.177 278.332 667.07 225.985 674.555 221.397L687.939 232.965L592.678 331.763Z" fill="#1C737F"/>
<path d="M687.939 232.965L681.573 227.462C668.461 240.084 651.377 258.019 639.202 269.12C629.734 277.752 612.753 298.533 593.741 306.767C592.003 307.595 590.814 304.717 589.566 301.838C588.332 298.989 587.038 296.14 585.098 296.886C581.197 298.39 586.858 350.336 572.282 356.297C560.717 361.025 527.809 366.368 517.439 354.841C513.982 349.901 521.433 339.719 516.248 336.425C505.877 324.898 524.185 295.916 520.716 294.414C518.337 293.66 516.573 294.815 514.858 295.971C512.832 297.334 510.878 298.699 508.069 296.916C495.97 285.389 485.172 263.88 479.964 257.09C474.753 250.302 458.672 226.218 445.154 205.709L439.573 212.278C449.993 226.617 508.167 316.405 508.167 316.405C508.167 316.405 508.555 346.555 508.555 364.937C508.555 383.32 503.537 414.938 503.537 414.938C559.877 432.218 597.308 414.938 597.308 414.938C592.292 395.452 592.678 331.763 592.678 331.763L687.939 232.965Z" fill="#1E5661"/>
<path d="M642.593 656.559C642.918 661.344 634.423 663.523 624.961 658.198C615.501 652.871 608.23 649.266 606.94 647.627C605.649 645.988 605.12 634.88 606.138 632.689C607.155 630.497 616.233 628.235 619.221 630.493C622.206 632.754 625.993 639.227 628.788 642.504C631.583 645.782 642.163 650.208 642.593 656.559Z" fill="#2B2745"/>
<path d="M540.477 599.614C538.028 598.114 529.137 602.007 527.585 604.313C526.034 606.621 524.14 616.664 521.834 619.332C519.527 622 508.119 634.959 514.518 637.2C520.916 639.438 548.353 615.872 548.945 614.153C549.536 612.432 544.321 601.969 540.477 599.614Z" fill="#2B2745"/>
<path d="M206.845 324.741C180.166 327.543 168.185 272.463 159.601 267.697C142.865 258.403 116.029 265.328 109.408 283.093C101.27 304.926 124.072 339.584 101.465 341.092C130.204 358.909 181.299 360.066 206.845 324.741Z" fill="#1E5661"/>
<path d="M159.838 276.911C159.838 276.911 147.198 282.082 135.493 274.459C147.281 285.544 128.567 289 127.852 297.096C115.957 299.098 121.51 313.456 125.432 315.149C123.017 322.698 117.141 319.602 110.153 315.574C112.553 329.078 114.085 340.249 101.465 341.092C129.105 358.227 177.413 359.936 203.792 328.618C169.668 331.632 171.324 297.428 159.838 276.911Z" fill="#173331"/>
<path d="M158.155 280.404C161.667 285.351 166.524 308.504 164.72 316.234C163.212 322.698 156.58 322.118 156.58 322.118L160.798 338.696L134.799 340.3C134.799 340.3 136.311 325.102 134.795 317.336C134.289 314.747 132.602 313.301 132.062 313.096C128.421 314.27 125.94 310.054 124.936 307.138C122.72 300.697 128.699 298.879 132.225 303.986C134.795 304.022 129.912 299.833 134.059 294.222C137.581 289.453 145.406 286.998 144.787 281.865C144.787 281.865 154.835 285.545 158.155 280.404Z" fill="#F9AF9C"/>
<path d="M135.485 325.909C135.244 322.393 135.329 317.576 133.99 315.149C136.397 318.825 148.277 322.14 156.58 322.118L158.148 328.282C149.482 332.338 142.302 329.407 135.485 325.909Z" fill="#F68A72"/>
<path d="M130.792 306.561C131.418 307.996 131.278 309.415 130.476 309.735C129.674 310.054 128.516 309.15 127.887 307.716C127.261 306.283 127.401 304.86 128.203 304.542C129.005 304.225 130.165 305.127 130.792 306.561Z" fill="#F68A72"/>
<path d="M133.788 278.255C136.313 281.104 122.266 284.957 117.751 282.153C113.236 279.348 116.742 277.045 120.316 275.842C123.89 274.64 131.475 275.645 133.788 278.255Z" fill="#1C737F"/>
<path d="M155.967 269.161C157.44 272.616 134.313 273.53 131.655 269.064C130.277 266.75 135.971 265.902 139.759 265.815C143.55 265.729 154.617 265.996 155.967 269.161Z" fill="#1C737F"/>
<path d="M63.793 295.91C63.793 295.91 39.7939 275.455 38.5583 273.296C37.3228 271.138 34.7896 267.961 31.7007 266.194C28.6097 264.429 19.8797 262.752 19.058 264.061C18.2357 265.369 26.2197 267.495 25.9853 268.725C25.7504 269.955 5.78226 269.061 4.60744 269.955C3.43469 270.851 3.43469 276.771 5.66403 278.006C7.89545 279.241 13.4576 281.143 16.5107 281.926C19.5645 282.709 32.3252 284.017 32.3252 284.017L51.23 306.425L63.793 295.91Z" fill="#F9AF9C"/>
<path d="M34.5108 274.573C32.2306 279.282 24.753 279.465 20.8283 279.282C16.1041 279.06 3.82961 277.787 3.95579 271.477C3.58314 273.583 4.00643 277.087 5.66401 278.006C7.89542 279.241 13.4575 281.143 16.5106 281.926C19.5645 282.709 32.3252 284.015 32.3252 284.015L51.23 306.425L58.5082 301.021C45.911 286.425 38.6867 286.507 34.5108 274.573Z" fill="#F68A72"/>
<path d="M224.342 320.417C224.342 320.417 230.17 294.072 229.986 292.669C229.797 291.263 226.072 285.026 225.976 282.736C225.88 280.445 234.231 271.088 235.677 270.937C237.15 270.78 238.038 271.62 237.793 273.604C240.831 271.755 243.791 273.647 243.341 276.233C245.559 275.251 247.705 277.427 246.302 279.823C249.232 279.187 249.788 282.204 248.207 283.469C249.574 283.432 250.476 284.707 248.509 287.882C246.544 291.055 242.709 295.709 242.709 295.709L240.84 324.363L224.342 320.417Z" fill="#F9AF9C"/>
<path d="M237.273 274.667C234.917 277.448 232.207 279.516 232.673 281.287C233.702 285.184 239.549 286.423 238.107 290.375C236.666 294.329 233.615 293.998 229.965 293.082C229.591 296.689 224.342 320.417 224.342 320.417L240.84 324.363L242.709 295.709C242.709 295.709 246.544 291.055 248.509 287.882C249.354 286.52 249.508 285.766 249.641 285.053C244.245 293.203 231.831 283.399 237.273 274.667Z" fill="#F68A72"/>
<path d="M156.648 668.56L167.046 672.947L169.652 655.075H157.41L156.648 668.56Z" fill="#F9AF9C"/>
<path d="M42.2332 517.847L35.036 525.401L44.2669 535.361L52.4972 526.725L42.2332 517.847Z" fill="#F9AF9C"/>
<path d="M43.7288 517.776C44.3141 520.89 37.9574 527.105 34.695 527.255C31.4339 527.404 21.573 529.356 18.9176 529.763C16.2627 530.168 8.28218 535.009 5.28576 534.257C2.29141 533.506 2.08417 530.92 2.57038 529.786C3.0578 528.653 29.4016 503.778 29.4016 503.778C29.4016 503.778 42.8793 513.275 43.7288 517.776Z" fill="#2B2745"/>
<path d="M156.242 666.075C159.619 664.286 170.719 668.072 172.121 671.439C173.526 674.806 177.192 680.219 178.661 682.85C180.13 685.485 192.193 692.036 192.452 695.461C192.712 698.886 189.804 700.078 188.308 699.996C186.813 699.912 146.977 685.844 146.977 685.844C146.977 685.844 151.355 668.661 156.242 666.075Z" fill="#2B2745"/>
<path d="M192.048 416.28C192.048 416.28 200.184 470.784 192.862 527.902C185.54 585.018 170.299 657.227 170.024 658.276C169.751 659.324 157.097 660.635 156.546 656.179C155.996 651.724 154.221 505.731 151.364 504.824C148.51 503.918 127.098 570.224 107.116 580.197C87.1301 590.171 41.4447 534.657 40.91 532.875C40.3766 531.095 48.6554 522.952 50.7925 523.714C52.9294 524.478 88.7236 548.654 91.3938 548.401C94.0662 548.146 106.086 499.027 110.894 481.214C115.701 463.399 121.312 430.569 136.804 419.627L192.048 416.28Z" fill="#F0365D"/>
<path d="M136.803 419.627C127.316 426.327 121.538 441.237 117.378 455.879C141.166 466.705 170.719 465.593 195.484 456.676C194.476 432.584 192.048 416.28 192.048 416.28L136.803 419.627Z" fill="#EE1E51"/>
<path d="M180.177 562.654C175.904 562.654 168.673 500.361 169.478 493.422C169.983 489.078 183.938 477.353 188.569 477.353C188.914 477.353 189.206 477.417 189.44 477.555C192.784 479.546 184.839 557.188 180.658 562.367C180.504 562.56 180.343 562.654 180.177 562.654Z" fill="#F46C7C"/>
<path d="M106.426 548.533C106.381 548.533 106.342 548.528 106.302 548.518C102.059 547.459 121.681 481.919 127.097 477.351C127.534 476.984 128.047 476.817 128.611 476.817C132.78 476.817 139.847 485.832 141.118 489.004C142.551 492.572 111.135 548.533 106.426 548.533Z" fill="#F46C7C"/>
<path d="M87.5873 552.74C81.0637 552.74 50.1511 532.874 51.2402 528.045C51.263 527.942 51.3624 527.892 51.5318 527.892C55.0056 527.892 87.8183 548.651 88.6642 551.21C89.0152 552.271 88.5879 552.74 87.5873 552.74Z" fill="#F46C7C"/>
<path d="M227.655 295.696C227.655 295.696 220.19 330.65 219.015 331.291C217.84 331.931 200.123 331.2 185.335 329.501C174.013 328.201 160.494 328.606 159.221 329.415C156.292 331.284 143.586 334.961 137.035 331.823C130.483 328.687 88.7661 312.494 84.2222 309.377C79.6783 306.26 47.5043 280.717 46.2316 279.852C44.959 278.984 34.2002 289.063 35.6956 291.91C37.1898 294.757 64.5559 334.958 68.7406 337.321C72.9232 339.686 116.064 370.092 118.155 372.653C119.663 374.5 122.698 408.788 122.61 429.621C122.573 437.702 117.663 443.759 118.581 445.112C121.87 449.954 132.991 455.931 158.395 454.794C183.798 453.654 192.53 450.807 197.012 442.265C198.099 440.195 194.907 434.357 194.698 426.667C194.039 402.612 192.193 360.427 192.872 358.701C193.241 357.763 199.783 357.837 207.628 357.912C218.84 358.018 232.716 358.125 235.058 355.278C237.615 352.175 245.37 302.368 245.37 300.089C245.37 297.812 228.955 293.165 227.655 295.696Z" fill="#F03CA7"/>
<path d="M194.893 445.471C195.702 444.503 196.397 443.437 197.012 442.265C197.169 441.965 197.238 441.588 197.238 441.137C197.238 441.588 197.169 441.965 197.012 442.265C196.397 443.437 195.702 444.503 194.893 445.471ZM192.725 362.062C192.724 360.15 192.769 358.961 192.872 358.701C193.14 358.018 196.689 357.871 201.63 357.871C203.469 357.871 205.5 357.891 207.628 357.912C209.756 357.932 211.979 357.952 214.2 357.952C217.109 357.952 220.016 357.917 222.705 357.804C220.014 357.917 217.103 357.952 214.191 357.952C211.973 357.952 209.756 357.932 207.633 357.912C205.507 357.893 203.48 357.871 201.642 357.871C196.696 357.871 193.14 358.018 192.872 358.703C192.769 358.963 192.724 360.15 192.725 362.062ZM222.724 357.802C222.735 357.802 222.745 357.802 222.757 357.8C222.745 357.802 222.736 357.802 222.724 357.802ZM234.768 355.569C234.77 355.567 234.771 355.566 234.773 355.566C234.771 355.566 234.77 355.567 234.768 355.569ZM234.777 355.561C234.78 355.559 234.784 355.556 234.787 355.553C234.784 355.556 234.78 355.559 234.777 355.561ZM234.789 355.551C234.797 355.544 234.808 355.536 234.816 355.528C234.808 355.536 234.797 355.544 234.789 355.551ZM234.818 355.526C234.908 355.446 234.989 355.363 235.058 355.278C237.615 352.175 245.37 302.368 245.37 300.089C245.37 302.368 237.615 352.175 235.058 355.278C234.989 355.363 234.908 355.446 234.818 355.526ZM245.37 300.083C245.37 300.081 245.37 300.081 245.37 300.079C245.37 300.081 245.37 300.081 245.37 300.083ZM245.37 300.078C245.363 299.783 245.083 299.447 244.598 299.095C245.078 299.436 245.363 299.768 245.37 300.078ZM35.691 291.9C35.6903 291.9 35.6903 291.898 35.6896 291.898C35.6903 291.898 35.6903 291.9 35.691 291.9ZM35.6854 291.89C35.6848 291.888 35.6848 291.888 35.6848 291.888C35.6848 291.888 35.6848 291.888 35.6854 291.89Z" fill="#CF90C0"/>
<path d="M194.889 445.476C194.891 445.474 194.893 445.472 194.893 445.47C194.893 445.472 194.891 445.474 194.889 445.476Z" fill="#E23566"/>
<path d="M152.287 454.935C134.002 454.935 124.362 450.891 120.153 446.927C124.362 450.891 134.002 454.935 152.287 454.935C154.224 454.935 156.259 454.889 158.395 454.794C180.303 453.811 189.811 451.558 194.889 445.476C189.811 451.558 180.303 453.812 158.395 454.794C156.259 454.889 154.224 454.935 152.287 454.935Z" fill="#E91D5C"/>
<path d="M152.287 454.935C134.002 454.935 124.362 450.891 120.153 446.927C119.504 446.316 118.983 445.705 118.581 445.112C118.503 444.997 118.467 444.846 118.467 444.661C118.472 442.703 122.577 437.009 122.61 429.621C122.61 429.316 122.611 429.009 122.611 428.697C122.61 407.79 119.642 374.474 118.155 372.653C116.064 370.092 72.9232 339.686 68.7406 337.321C64.5558 334.958 37.1898 294.757 35.6956 291.91C35.6942 291.907 35.6921 291.903 35.6909 291.9C35.6902 291.9 35.6902 291.898 35.6895 291.898C35.6881 291.895 35.6868 291.892 35.6854 291.89C35.6847 291.889 35.6847 291.889 35.6847 291.889C35.6814 291.882 35.6779 291.874 35.6747 291.867C35.6726 291.864 35.6712 291.861 35.6693 291.857C34.8286 290.023 38.721 285.412 42.0422 282.451C49.5758 301.27 69.9221 323.297 73.0784 327.869C76.2363 332.44 101.058 349.819 115.252 355.152C115.755 355.342 116.225 355.428 116.665 355.428C118.75 355.428 120.162 353.514 121.301 351.599C122.438 349.685 123.301 347.77 124.281 347.77C124.45 347.77 124.625 347.829 124.805 347.954C132.617 353.435 124.457 369.013 133.976 379.225C138.465 384.042 148.332 386.118 158.414 386.118C169.71 386.118 181.275 383.51 185.829 379.225C194.449 371.118 183.3 343.679 186.757 342.033C186.873 341.977 187.03 341.95 187.229 341.95C189.084 341.95 194.418 344.244 200.733 346.537C207.049 348.829 214.346 351.121 220.13 351.121C223.666 351.121 226.636 350.265 228.47 348.025C229.89 346.288 222.876 335.814 224.508 334.262C224.715 334.064 224.969 333.978 225.262 333.978C227.268 333.978 230.988 338.056 232.497 338.056C234.994 325.601 242.048 304.938 237.336 296.182C240.064 297.007 243.18 298.09 244.598 299.095C245.083 299.447 245.363 299.783 245.37 300.078V300.08C245.37 300.081 245.37 300.081 245.37 300.083C245.37 300.084 245.37 300.088 245.37 300.089C245.37 302.369 237.615 352.175 235.058 355.278C234.989 355.363 234.908 355.446 234.818 355.526C234.816 355.526 234.816 355.526 234.816 355.528C234.808 355.536 234.797 355.544 234.789 355.551C234.787 355.553 234.787 355.553 234.787 355.553C234.784 355.556 234.78 355.559 234.777 355.561C234.775 355.563 234.775 355.564 234.773 355.566C234.771 355.566 234.77 355.567 234.768 355.569C233.121 356.956 228.432 357.557 222.757 357.801C222.745 357.802 222.735 357.802 222.724 357.802C222.719 357.802 222.71 357.802 222.705 357.804C220.016 357.917 217.109 357.952 214.2 357.952C211.979 357.952 209.756 357.932 207.628 357.912C205.5 357.891 203.469 357.871 201.63 357.871C196.689 357.871 193.14 358.018 192.872 358.701C192.769 358.961 192.724 360.15 192.725 362.062C192.725 372.781 194.138 406.253 194.698 426.667C194.876 433.246 197.238 438.469 197.238 441.137C197.238 441.588 197.169 441.965 197.012 442.265C196.397 443.438 195.702 444.503 194.893 445.471C194.893 445.473 194.891 445.475 194.889 445.476C189.811 451.558 180.303 453.811 158.395 454.794C156.259 454.889 154.224 454.935 152.287 454.935Z" fill="#DA35A3"/>
<path d="M151.036 366.341C145.928 366.341 141.771 365.656 140.186 363.869C135.134 358.168 128.096 343.632 130.592 338.958C130.856 338.464 131.247 338.243 131.744 338.243C135.597 338.243 145.921 351.332 154.726 351.724C154.842 351.729 154.961 351.732 155.078 351.732C159.876 351.732 165.133 347.457 169.459 343.184C173.785 338.909 177.183 334.634 178.264 334.634C178.326 334.634 178.379 334.648 178.426 334.678C180.11 335.737 185.917 357.649 181.209 360.852C177.977 363.052 162.225 366.341 151.036 366.341Z" fill="#F680C5"/>
<path d="M270.284 503.051C272.522 507.626 284.81 503.673 290.721 494.201C296.634 484.727 297.246 482.198 297.567 480.062C297.891 477.928 295.849 474.275 294.911 474.629C292.614 475.492 269.378 492.441 268.879 499.864C268.843 500.393 270.087 502.649 270.284 503.051Z" fill="white"/>
<path d="M328.441 137.907C324.531 133.957 323.216 126.2 321.98 122.092C320.457 117.03 323.544 112.316 327.195 111.044C324.229 105.064 330.212 98.533 337.358 100.046C340.222 90.7059 350.696 90.8294 354.666 97.6273C360.061 91.2955 369.434 95.8109 367.835 103.526C375.753 105.757 374.721 114.624 366.997 116.023C359.601 117.367 335.833 137.82 333.377 140.839C333.377 140.839 332.354 141.86 328.441 137.907Z" fill="#2B2745"/>
<path d="M350.878 98.2263C350.878 99.9883 348.902 101.418 346.467 101.418C344.031 101.418 342.056 99.9883 342.056 98.2263C342.056 96.4626 344.031 95.0332 346.467 95.0332C348.902 95.0332 350.878 96.4626 350.878 98.2263Z" fill="#3D4777"/>
<path d="M365.059 99.9981C365.059 101.459 363.422 102.643 361.404 102.643C359.385 102.643 357.75 101.459 357.75 99.9981C357.75 98.5358 359.385 97.3534 361.404 97.3534C363.422 97.3534 365.059 98.5358 365.059 99.9981Z" fill="#3D4777"/>
<path d="M371 107.911C371 109.37 369.363 110.556 367.345 110.556C365.326 110.556 363.689 109.37 363.689 107.911C363.689 106.45 365.326 105.265 367.345 105.265C369.363 105.265 371 106.45 371 107.911Z" fill="#3D4777"/>
<path d="M335.913 103.152C336.843 104.315 336.295 106.202 334.692 107.369C333.087 108.534 331.032 108.538 330.1 107.378C329.17 106.217 329.718 104.329 331.322 103.163C332.928 101.996 334.983 101.991 335.913 103.152Z" fill="#3D4777"/>
<path d="M330.482 115.312C331.412 116.473 330.866 118.358 329.26 119.526C327.656 120.693 325.601 120.697 324.671 119.536C323.741 118.375 324.287 116.487 325.893 115.322C327.499 114.154 329.552 114.151 330.482 115.312Z" fill="#3D4777"/>
<path d="M365.536 113.762C365.536 113.762 370.627 139.878 367.087 147.888C363.547 155.898 358.899 155.264 358.899 155.264V163.697C358.899 163.697 369.132 165.821 370.089 171.788C371.282 179.213 373.783 192.606 357.164 197.005C340.543 201.403 334.006 188.499 329.96 182.012C325.915 175.526 335.89 166.016 335.89 166.016C335.89 166.016 338.989 153.79 337.881 145.148C337.881 145.148 329.981 145.349 329.96 137.408C329.948 131.575 333.412 131.415 335.081 132.565C335.747 133.023 336.775 135.162 337.285 134.551C338.281 133.36 337.496 129.747 337.124 128.324C336.148 124.59 336.255 118.788 339.076 116.922C343.298 114.131 346.859 115.196 350.504 116.263C352.748 116.919 355.022 117.576 357.503 117.332C364.669 116.631 365.536 113.762 365.536 113.762Z" fill="#F9AF9C"/>
<path d="M358.901 161.441V155.264C358.901 155.264 345.929 155.302 337.881 145.148C338.282 149.316 337.881 154.994 337.285 158.879C344.245 163.238 351.278 163.444 358.901 161.441Z" fill="#F68A72"/>
<path d="M333.227 135.636C334.108 135.303 335.296 136.185 335.882 137.601C336.468 139.015 336.227 140.432 335.348 140.763C334.468 141.094 333.277 140.214 332.691 138.796C332.107 137.382 332.345 135.967 333.227 135.636Z" fill="#F68A72"/>
<path d="M281.702 205.664L267.418 217.896C267.418 217.896 225.215 193.278 225.02 193.151C223.234 191.994 223.232 184.101 222.073 182.685C220.911 181.27 216.251 179.758 214.378 179.931C212.506 180.102 211.03 181.099 210.924 182.373C207.199 179.47 204.154 183.009 205.691 185.336C202.783 184.496 201.055 188.112 203.179 189.935C200.49 189.929 199.669 193.519 202.244 194.955C200.393 195.518 200.595 198.487 202.289 199.668C204.536 201.234 214.061 204.587 217.345 204.005C217.479 204.157 266.023 244.853 270.172 244.634C275.825 244.335 293.378 227.622 293.535 228.219C293.692 228.817 281.702 205.664 281.702 205.664Z" fill="#F9AF9C"/>
<path d="M287.902 218.309C283.34 224.527 275.305 233.391 271.044 232.189C266.785 230.987 220.443 199.845 218.491 197.126C216.647 194.557 216.239 191.274 218.991 186.598C214.493 188.828 215.622 195.969 209.026 195.185C208.381 192.525 211.192 187.965 211.01 184.085C209.033 187.218 207.35 197.24 205.932 197.969C204.512 198.699 202.8 198.893 201.081 197.808C201.271 198.521 201.691 199.203 202.316 199.639C204.482 201.149 213.071 204.202 216.834 204.064L217.399 204.005L226.305 211.422C226.305 211.422 267.199 244.794 270.225 244.634C275.879 244.334 293.433 227.621 293.588 228.219C293.635 228.395 289.338 221.039 287.902 218.309Z" fill="#F68A72"/>
<path d="M378.984 158.268L423.64 119.552C423.64 119.552 457.201 84.9072 457.353 84.7327C458.738 83.155 456.48 75.5618 457.192 73.8969C457.904 72.2337 461.956 69.5676 463.805 69.2481C465.656 68.9303 467.361 69.5016 467.827 70.7021C470.582 66.9409 474.523 69.556 473.711 72.1925C476.269 70.6314 478.964 73.6597 477.444 75.9652C480.03 75.2604 481.847 78.5012 479.78 80.5515C481.721 80.6124 482.377 83.5207 481.085 85.0983C479.372 87.188 471.167 92.8875 467.839 93.1806C467.755 93.3634 433.45 141.688 430.362 144.336C426.153 147.942 397.017 175.893 397.561 176.229C398.104 176.563 378.984 158.268 378.984 158.268Z" fill="#F9AF9C"/>
<path d="M378.984 158.268C381.347 156.04 400.57 139.55 406.504 134.408C407.418 136.446 413.186 145.627 417.44 145.148C421.692 144.669 463.89 89.3602 464.768 86.8637C465.809 83.911 465.261 80.6455 461.277 76.8629C466.242 77.841 467.198 85.0028 473.32 82.5343C473.18 79.8089 469.169 76.1514 468.234 72.3721C471.034 74.8719 475.521 84.0773 477.095 84.4116C478.668 84.7459 480.371 84.4858 481.715 82.9971C481.736 83.7315 481.529 84.4956 481.05 85.0769C479.399 87.0942 472.008 92.2635 468.349 93.1066L467.789 93.1955L461.342 102.646C461.342 102.645 432.578 142.441 430.325 144.371C426.115 147.98 397.001 175.942 397.544 176.277C397.703 176.376 381.231 160.445 378.984 158.268Z" fill="#F68A72"/>
<path d="M276.506 451.661L280.516 471.874L291.779 470.505L291.39 448.852L276.506 451.661Z" fill="#F9AF9C"/>
<path d="M370.314 496.935L372.728 514.879H384.803V493.946L370.314 496.935Z" fill="#F9AF9C"/>
<path d="M273.438 455.734L295.671 454.163C295.671 454.163 291.741 388.045 295.265 376.304C298.789 364.562 337.631 341.667 337.631 341.667C337.631 341.667 360.042 418.571 360.546 424.569C361.049 430.565 365.581 502.529 365.581 502.529L389.752 500.61C389.752 500.61 393.276 422.41 393.276 413.295C393.276 404.178 390.758 289.515 390.758 289.515H308.679C308.679 289.515 263.541 347.793 261.025 362.665C258.506 377.539 273.438 455.734 273.438 455.734Z" fill="#713E85"/>
<path d="M271.041 363.869C269.44 363.251 266.234 362.018 266.88 360.493C283.161 330.299 305.713 300.132 311.039 299.422C311.179 299.404 311.32 299.396 311.46 299.396C316.658 299.396 322.002 311.882 322.837 319.21C323.692 326.739 280.041 360.228 271.041 363.869Z" fill="#9B3B90"/>
<path d="M373.102 398.5C368.553 398.5 353.71 332.955 355.266 327.86C356.73 323.073 371.539 311.183 376.519 311.183C376.84 311.183 377.12 311.233 377.354 311.337C381.203 313.054 377.651 398.5 373.102 398.5Z" fill="#9B3B90"/>
<path d="M308.598 231.25C308.598 231.25 308.985 273.53 303.968 293.017C303.968 293.017 341.401 310.296 397.739 293.017C397.739 293.017 392.723 261.399 392.723 243.016C392.723 224.631 393.109 194.484 393.109 194.484C393.109 194.484 407.019 174.667 417.44 160.328L400.441 131.613C400.441 131.613 378.479 149.527 372.314 153.051C366.15 156.573 358.899 160.28 358.899 160.28L354.186 184.195L335.89 166.016C335.89 166.016 317.356 170.515 310.997 174.739C303.268 179.869 290.213 191.506 275.495 209.387L292.235 237.255L308.598 231.25Z" fill="#3D4777"/>
<path d="M348.389 300.696C320.607 300.696 303.968 293.017 303.968 293.017C308.318 276.118 308.605 242.079 308.605 233.334C308.605 232.005 308.598 231.261 308.598 231.25L292.235 237.255L289.013 231.893L283.878 223.343L275.495 209.387C277.006 207.551 278.492 205.8 279.963 204.098C285.935 212.48 292.01 229.101 295.692 229.914C295.799 229.937 295.932 229.949 296.09 229.949C298.112 229.949 304.051 227.943 306.493 222.08C310.363 212.788 310.717 197.879 314.174 197.879C314.247 197.879 314.319 197.886 314.394 197.899C320.499 198.97 318.504 227.467 323.689 234.054C325.739 236.333 329.153 237.27 333.355 237.27C350.414 237.267 380.439 221.807 384.599 217.842C393.242 204.667 383.36 180.16 385.737 176.466C386.115 175.88 386.537 175.643 386.997 175.643C387.941 175.643 389.04 176.638 390.229 177.632C391.418 178.627 392.699 179.622 394.006 179.622C394.761 179.622 395.523 179.291 396.282 178.438C400.316 173.906 407.173 159.645 413.884 154.324L417.44 160.328C407.019 174.667 393.109 194.484 393.109 194.484C393.109 194.484 392.723 224.631 392.723 243.016C392.723 261.399 397.739 293.017 397.739 293.017C378.958 298.777 362.282 300.696 348.389 300.696Z" fill="#35355D"/>
<path d="M332.477 210.194C332.179 210.194 331.941 210.177 331.763 210.141C328.392 209.453 321.798 182.151 323.311 179.626C324.614 177.449 327.706 174.574 330.472 174.574C330.914 174.574 331.346 174.647 331.763 174.81C335.019 176.071 353.653 193.871 357.546 193.871C357.62 193.871 357.688 193.864 357.748 193.851C361.143 193.163 364.876 163.361 367.344 162.661C369.813 161.96 373.665 157.599 375.11 157.599C376.451 157.599 380.902 162.759 382.691 162.759C382.831 162.759 382.954 162.727 383.058 162.661C384.502 161.729 382.816 150.839 384.743 150.32C386.649 149.805 397.512 139.243 398.909 139.243C398.925 139.243 398.938 139.243 398.951 139.246C400.155 139.476 389.318 152.043 389.318 153.904C389.318 155.765 388.595 168.384 386.67 168.843C386.521 168.878 386.326 168.894 386.093 168.894C383.312 168.894 375.11 166.556 375.11 166.556C375.11 166.556 367.123 202.34 364.375 203.488C361.768 204.573 337.847 210.194 332.477 210.194Z" fill="#495684"/>
<path d="M269.261 497.547C270.79 501.784 280.666 499.1 286.809 491.263C292.951 483.424 295.465 477.95 295.958 476.094C296.451 474.238 293.374 466 291.67 464.46C289.964 462.923 280.143 463.294 278.421 466.266C276.701 469.239 276.226 478.051 275.054 481.835C273.884 485.621 267.23 491.925 269.261 497.547Z" fill="#2B2745"/>
<path d="M371.066 510.547C372.551 508.161 382.332 507.856 384.804 509.259C387.274 510.664 395.774 518.275 399.089 519.68C402.403 521.083 416.482 524.134 414.201 529.598C411.916 535.062 371.65 528.444 370.314 527.158C368.978 525.87 368.733 514.29 371.066 510.547Z" fill="#2B2745"/>
<path d="M369.006 525.934C368.112 527.339 368.722 530.553 369.811 531.149C370.368 531.454 379.321 533.723 390.993 534.728C402.166 535.689 413.343 534.655 414.794 533.639C415.469 533.167 415.957 531.102 415.366 529.636C414.82 528.276 408.272 530.533 392.63 529.735C379.466 529.061 369.901 524.531 369.006 525.934Z" fill="white"/>
<path d="M573.075 96.682C569.447 99.4255 561.892 104.137 554.583 108.69C548.972 112.188 544.42 115.042 540.996 117.303C543.123 115.085 545.223 112.642 547.209 109.887C552.913 101.968 556.429 93.4888 558.579 86.4934C558.878 88.8153 559.746 91.05 561.236 92.8614C562.122 93.9318 563.75 94.1163 564.877 93.2781C566.003 92.4349 566.198 90.8836 565.313 89.8083C563.272 87.3299 563.059 83.2064 564.831 80.4217C565.89 78.7535 568.061 76.9306 572.375 77.6996C575.761 78.304 578.06 80.2999 578.845 83.32C579.82 87.0598 578.415 92.6441 573.075 96.682ZM481.76 94.5247C476.791 87.6823 471.651 80.6095 469.374 76.7659C466.023 71.1109 466.927 65.4328 469.307 62.3171C471.227 59.8008 474.145 58.7749 477.52 59.432C481.821 60.2652 483.112 62.7338 483.435 64.6588C483.978 67.8733 482.153 71.6165 479.278 73.1809C478.034 73.861 477.603 75.3678 478.314 76.5518C479.026 77.7342 480.609 78.1459 481.852 77.4724C484.517 76.0199 486.539 73.5827 487.68 70.8063C486.954 78.6218 486.861 88.9405 489.3 99.3481C490.216 103.253 491.412 106.826 492.746 110.062C490.423 106.485 486.705 101.327 481.76 94.5247ZM583.878 82.1294C582.594 77.194 578.752 73.8116 573.329 72.8449C568.108 71.9112 563.65 73.4987 560.923 77.1578C561.633 73.5053 561.827 71.2492 561.827 71.2492L489.865 57.2961C489.865 57.2961 489.21 59.7646 488.553 63.8651C487.737 59.045 484.092 55.6642 478.554 54.5905C473.151 53.5431 468.252 55.3003 465.115 59.409C461.081 64.6918 460.977 72.644 464.858 79.1932C467.252 83.236 472.461 90.4045 477.498 97.3357C483.105 105.052 489.462 113.8 490.434 116.277C491.03 117.795 490.262 119.455 489.198 119.995C487.544 120.837 485.63 118.536 485.081 117.81C484.247 116.705 482.628 116.451 481.463 117.248C480.3 118.046 480.037 119.587 480.872 120.697C482.854 123.323 485.018 124.593 487.03 124.985C488.748 125.318 490.354 125.008 491.642 124.353C494.575 122.861 496.148 119.598 495.736 116.399C500.061 124.484 504.804 129.563 506.622 131.356L504.923 139.315L504.83 139.297C503.812 139.101 502.821 139.727 502.614 140.695C502.406 141.665 503.063 142.61 504.081 142.808L504.173 142.826L503.746 144.824C501.979 145.797 500.628 147.437 500.187 149.494C499.748 151.551 500.32 153.561 501.547 155.118L501.024 157.565L492.644 155.941C489.95 155.417 487.317 157.076 486.769 159.645C486.223 162.212 487.962 164.718 490.658 165.24L516.994 170.347C519.691 170.869 522.32 169.211 522.869 166.643C523.417 164.074 521.677 161.57 518.982 161.046L510.601 159.422L511.125 156.974C512.891 156 514.244 154.36 514.682 152.305C515.123 150.248 514.549 148.236 513.323 146.68L513.75 144.682L513.842 144.698C514.86 144.898 515.852 144.272 516.058 143.302C516.265 142.334 515.61 141.389 514.592 141.191L514.5 141.173L516.078 133.779C516.078 133.779 523.925 131.365 532.505 124.865C531.389 127.511 531.747 130.609 533.644 132.782C534.578 133.851 535.945 134.714 537.667 135.02C539.685 135.381 542.192 134.979 545.068 133.258C546.281 132.53 546.646 131.007 545.882 129.851C545.12 128.697 543.516 128.349 542.307 129.074C541.514 129.55 538.83 130.994 537.63 129.622C536.859 128.74 536.802 126.928 537.953 125.734C539.834 123.788 549.178 117.965 557.423 112.825C564.827 108.208 572.486 103.437 576.299 100.55C582.481 95.8734 585.529 88.4695 583.878 82.1294Z" fill="#F9AB5B"/>
<path d="M573.075 96.682C569.449 99.4255 561.892 104.137 554.583 108.69C548.972 112.188 544.42 115.042 540.996 117.303C543.125 115.085 545.223 112.642 547.209 109.887C552.913 101.968 556.429 93.4888 558.579 86.4934C558.878 88.8153 559.746 91.05 561.236 92.8614C562.122 93.9318 563.75 94.1163 564.877 93.2781C566.003 92.4349 566.198 90.8836 565.313 89.8083C563.272 87.3299 563.059 83.2064 564.831 80.4217C565.89 78.7535 568.061 76.9306 572.375 77.6996C575.761 78.304 578.06 80.2999 578.845 83.32C579.82 87.0598 578.415 92.6441 573.075 96.682ZM481.76 94.5247C476.791 87.6823 471.651 80.6095 469.374 76.7659C466.023 71.1109 466.927 65.4328 469.307 62.3171C471.227 59.8008 474.145 58.7749 477.52 59.432C481.821 60.2652 483.112 62.7338 483.435 64.6588C483.978 67.8733 482.153 71.6165 479.278 73.1809C478.034 73.861 477.603 75.3678 478.314 76.5518C479.026 77.7342 480.609 78.1459 481.852 77.4724C484.517 76.0199 486.539 73.5827 487.68 70.8063C486.954 78.6218 486.861 88.9405 489.3 99.3481C490.216 103.253 491.412 106.826 492.748 110.062C490.423 106.485 486.705 101.327 481.76 94.5247ZM583.878 82.1294C582.594 77.194 578.752 73.8116 573.329 72.8449C568.108 71.9112 563.65 73.4987 560.923 77.1578C561.633 73.5053 561.827 71.2492 561.827 71.2492L521.044 63.3414C512.921 91.8833 517.544 118.673 513.347 118.824C509.149 118.976 489.81 98.1904 496.644 58.6103L489.865 57.2944C489.865 57.2944 489.21 59.7646 488.553 63.8651C487.737 59.045 484.092 55.6642 478.554 54.5905C473.151 53.5431 468.252 55.3003 465.115 59.409C461.081 64.6918 460.977 72.644 464.858 79.1932C467.252 83.236 472.461 90.4045 477.498 97.3357C483.105 105.052 489.462 113.8 490.434 116.277C491.03 117.795 490.262 119.455 489.198 119.995C487.544 120.837 485.63 118.536 485.081 117.81C484.247 116.705 482.628 116.451 481.463 117.248C480.3 118.046 480.037 119.587 480.872 120.697C482.854 123.323 485.018 124.593 487.03 124.985C488.748 125.318 490.354 125.008 491.642 124.353C494.575 122.861 496.148 119.598 495.736 116.399C500.061 124.484 504.804 129.563 506.622 131.356L504.923 139.315L504.83 139.297C503.812 139.101 502.821 139.727 502.614 140.695C502.406 141.665 503.063 142.61 504.081 142.806L504.173 142.826L503.746 144.824C501.979 145.797 500.628 147.437 500.187 149.494C499.748 151.551 500.32 153.561 501.547 155.118L501.024 157.565L492.644 155.941C489.95 155.417 487.319 157.076 486.771 159.645C486.223 162.212 487.962 164.718 490.658 165.24L516.994 170.347C519.691 170.869 522.32 169.211 522.869 166.643C523.417 164.074 521.677 161.57 518.982 161.046L510.601 159.422L511.125 156.974C512.891 156 514.244 154.36 514.682 152.305C515.123 150.248 514.55 148.236 513.323 146.68L513.75 144.682L513.842 144.698C514.86 144.898 515.852 144.272 516.058 143.302C516.265 142.334 515.61 141.389 514.592 141.191L514.5 141.173L516.078 133.779C516.078 133.779 523.927 131.365 532.505 124.865C531.389 127.511 531.747 130.609 533.644 132.782C534.578 133.851 535.945 134.714 537.667 135.02C539.685 135.381 542.192 134.979 545.068 133.258C546.281 132.53 546.646 131.007 545.882 129.851C545.12 128.697 543.516 128.349 542.307 129.074C541.514 129.55 538.83 130.994 537.63 129.622C536.859 128.74 536.802 126.928 537.953 125.734C539.834 123.788 549.178 117.965 557.423 112.825C564.827 108.208 572.486 103.437 576.299 100.55C582.481 95.8734 585.529 88.4695 583.878 82.1294Z" fill="#F89F1A"/>
<path d="M513.323 146.679L513.75 144.682L513.842 144.698C513.862 144.703 513.881 144.706 513.9 144.71C513.881 144.706 513.862 144.703 513.842 144.698L513.75 144.682L513.323 146.679Z" fill="#B9BECB"/>
<path d="M513.913 144.711C513.909 144.711 513.906 144.71 513.902 144.71C513.906 144.71 513.909 144.711 513.913 144.711Z" fill="#B9BECB"/>
<path d="M504.067 142.803C504.065 142.803 504.063 142.803 504.062 142.801C504.063 142.803 504.065 142.803 504.067 142.803ZM504.046 142.799C504.046 142.798 504.044 142.798 504.042 142.798C504.044 142.798 504.046 142.798 504.046 142.799ZM504.03 142.794C504.028 142.794 504.027 142.794 504.025 142.794C504.027 142.794 504.028 142.794 504.03 142.794ZM504.009 142.791C504.009 142.791 504.009 142.791 504.007 142.789C504.009 142.791 504.009 142.791 504.009 142.791ZM503.991 142.786C503.991 142.786 503.991 142.786 503.99 142.786C503.991 142.786 503.991 142.786 503.991 142.786Z" fill="#C4915F"/>
<path d="M513.323 146.679L503.746 144.823L504.173 142.826L504.081 142.806C504.076 142.804 504.071 142.804 504.066 142.803C504.064 142.803 504.062 142.803 504.061 142.801C504.055 142.801 504.05 142.8 504.045 142.8C504.045 142.798 504.043 142.798 504.041 142.798C504.038 142.798 504.033 142.796 504.029 142.795C504.028 142.795 504.026 142.795 504.024 142.795C504.019 142.793 504.014 142.791 504.009 142.791C504.009 142.791 504.009 142.791 504.007 142.79C504.002 142.79 503.997 142.788 503.991 142.786C503.991 142.786 503.991 142.786 503.99 142.786C503.26 142.61 502.74 142.042 502.612 141.368C502.851 142.139 505.874 142.587 509.035 143.188C511.078 143.574 513.171 143.997 514.524 143.997C515.266 143.997 515.786 143.87 515.954 143.541C515.683 144.252 514.991 144.734 514.21 144.734C514.117 144.734 514.02 144.728 513.923 144.713C513.92 144.713 513.916 144.711 513.913 144.711C513.909 144.711 513.906 144.71 513.902 144.71C513.902 144.71 513.902 144.71 513.901 144.71C513.881 144.706 513.862 144.703 513.842 144.698L513.75 144.682L513.323 146.679Z" fill="#C58A23"/>
<path d="M514.568 140.85C511.427 140.642 508.378 139.901 504.975 139.071L506.622 131.356C508.931 133.275 510.872 134.129 513.219 134.129C514.101 134.129 515.041 134.009 516.078 133.779L514.568 140.85Z" fill="#C58A23"/>
<path d="M510.601 159.422L511.125 156.974C512.891 156 514.245 154.36 514.682 152.305C514.684 152.298 514.685 152.292 514.687 152.285C514.685 152.292 514.684 152.298 514.682 152.305C514.245 154.36 512.891 156 511.125 156.974L510.601 159.422Z" fill="#B9BECB"/>
<path d="M510.601 159.422L501.024 157.565L501.547 155.118C500.598 153.914 500.04 152.438 500.04 150.879C500.04 150.423 500.087 149.96 500.187 149.494L500.251 149.308C504.328 150.614 508.084 151.172 511.906 151.172C512.865 151.172 513.828 151.137 514.801 151.07C514.791 151.472 514.773 151.875 514.687 152.285C514.685 152.292 514.683 152.298 514.682 152.305C514.244 154.36 512.891 156 511.124 156.974L510.601 159.422Z" fill="#C58A23"/>
<path d="M532.006 182.483L471.863 170.823L474.601 158.006L534.744 169.667L532.006 182.483Z" fill="#173331"/>
<path d="M516.128 177.449L488.539 172.101L490.477 163.039L518.064 168.387L516.128 177.449Z" fill="#F9AB5B"/>
<path d="M506.983 100.225C506.945 100.225 506.904 100.217 506.861 100.204C499.333 97.7107 498.483 68.7473 500.808 66.9342C501.551 66.3529 502.622 66.1042 503.827 66.1042C506.39 66.1042 509.557 67.2339 511.436 68.7127C512.831 69.8078 509.282 75.8284 508.276 84.6502C507.391 92.4098 508.281 100.225 506.983 100.225Z" fill="#FCCFA3"/>
<path d="M485.272 37.1575L479.565 36.5383C479.236 36.5021 478.91 36.6223 478.692 36.8611L474.922 40.9879C474.374 41.5873 473.343 41.3288 473.177 40.5499L472.032 35.188C471.967 34.8801 471.744 34.6198 471.44 34.4963L466.154 32.3555C465.386 32.0443 465.326 31.0299 466.052 30.6396L471.049 27.9438C471.338 27.789 471.529 27.5075 471.557 27.1946L472.06 21.7437C472.134 20.9516 473.128 20.5828 473.745 21.1196L477.978 24.8182C478.224 25.0307 478.561 25.1147 478.886 25.0439L484.481 23.817C485.295 23.6391 485.969 24.4264 485.623 25.1493L483.241 30.1275C483.103 30.4157 483.124 30.7483 483.293 31.0183L486.249 35.7116C486.677 36.3934 486.1 37.2465 485.272 37.1575Z" fill="#F89F1A"/>
<path d="M512.57 21.9379L507.071 20.357C506.755 20.2647 506.409 20.329 506.152 20.5249L501.668 23.9436C501.017 24.4393 500.05 24.0095 500.033 23.2141L499.914 17.7452C499.907 17.429 499.736 17.1359 499.459 16.963L494.661 13.9559C493.965 13.5195 494.096 12.5101 494.884 12.2499L500.308 10.45C500.621 10.3479 500.859 10.1025 500.948 9.79784L502.467 4.52327C502.688 3.75587 503.734 3.56152 504.238 4.19552L507.711 8.55456C507.91 8.80487 508.228 8.9465 508.56 8.93168L514.296 8.67807C515.129 8.64019 515.646 9.53108 515.169 10.1848L511.892 14.6772C511.704 14.9357 511.659 15.2668 511.776 15.5615L513.804 20.6813C514.097 21.4257 513.368 22.1684 512.57 21.9379Z" fill="#F89F1A"/>
<path d="M575.236 54.0353L580.741 55.5898C581.059 55.6804 581.31 55.911 581.412 56.2123L583.189 61.4145C583.448 62.1703 584.504 62.3169 584.976 61.6599L588.229 57.1526C588.417 56.8924 588.726 56.7376 589.058 56.7376L594.802 56.7344C595.635 56.7327 596.107 55.822 595.6 55.1913L592.104 50.8504C591.902 50.6001 591.843 50.2708 591.946 49.9711L593.716 44.7673C593.974 44.0114 593.21 43.3 592.424 43.5651L587.01 45.3914C586.697 45.4968 586.35 45.449 586.084 45.2646L581.436 42.0501C580.76 41.5824 579.816 42.0567 579.839 42.8521L579.987 48.321C579.996 48.6356 579.842 48.9352 579.573 49.1213L574.928 52.3407C574.254 52.8084 574.436 53.8097 575.236 54.0353Z" fill="#F89F1A"/>
<path d="M556.351 29.8623L562.062 30.4536C562.39 30.4865 562.681 30.6726 562.838 30.9509L565.564 35.7677C565.958 36.4676 567.026 36.4297 567.368 35.7051L569.721 30.7154C569.857 30.4272 570.132 30.2214 570.46 30.1654L576.109 29.1822C576.93 29.0406 577.222 28.0624 576.605 27.5289L572.351 23.8516C572.104 23.6425 571.985 23.328 572.028 23.0151L572.795 17.5923C572.906 16.8035 572.021 16.2353 571.297 16.6322L566.314 19.3511C566.027 19.5075 565.676 19.5206 565.379 19.384L560.2 17.0126C559.45 16.6685 558.608 17.2959 558.78 18.0748L559.955 23.43C560.022 23.738 559.926 24.0608 559.696 24.2881L555.731 28.2452C555.155 28.82 555.521 29.7751 556.351 29.8623Z" fill="#F89F1A"/>
<path d="M542.242 20.0706L537.655 16.7788C537.39 16.5877 537.044 16.535 536.73 16.6355L531.284 18.3695C530.492 18.6214 529.74 17.8985 530.013 17.1476L531.882 11.9751C531.989 11.6754 531.935 11.346 531.74 11.0924L528.324 6.69229C527.828 6.05334 528.316 5.14925 529.152 5.16243L534.893 5.25795C535.224 5.26289 535.537 5.11301 535.729 4.85446L539.067 0.401587C539.551 -0.243948 540.603 -0.0825729 540.847 0.679882L542.529 5.91007C542.624 6.21308 542.873 6.44858 543.189 6.54409L548.665 8.19247C549.46 8.42961 549.622 9.43575 548.94 9.89191L544.235 13.0307C543.965 13.2118 543.804 13.5099 543.806 13.8261L543.854 19.295C543.861 20.0904 542.909 20.5482 542.242 20.0706Z" fill="#F89F1A"/>
<path d="M524.588 331.829C523.449 331.829 522.721 331.747 522.528 331.563C520.948 330.061 517.795 318.174 522.528 314.164C522.619 314.085 522.768 314.049 522.969 314.049C524.139 314.049 527.07 315.269 530.982 316.49C534.891 317.71 539.781 318.93 544.858 318.93C545.006 318.93 545.153 318.93 545.302 318.927C557.157 318.759 569.92 313.927 573.627 313.927C574.084 313.927 574.402 314 574.566 314.164C577.326 316.915 570.623 324.803 565.891 326.304C561.743 327.623 532.722 331.829 524.588 331.829Z" fill="#1D8890"/>
</svg>
