<svg width="724" height="709" viewBox="0 0 724 709" fill="none" xmlns="http://www.w3.org/2000/svg">
<path d="M723.142 284.324C723.142 441.355 595.844 568.654 438.818 568.654C281.788 568.654 154.492 441.355 154.492 284.324C154.492 127.298 281.788 3.05176e-05 438.818 3.05176e-05C595.844 3.05176e-05 723.142 127.298 723.142 284.324Z" fill="#9BC1F9"/>
<path d="M536.165 17.1021C616.74 67.2946 670.37 156.69 670.37 258.615C670.37 415.641 543.072 542.939 386.045 542.939C351.85 542.939 319.066 536.901 288.698 525.837C332.265 552.975 383.709 568.654 438.818 568.654C595.844 568.654 723.142 441.355 723.142 284.324C723.142 161.492 645.248 56.8542 536.165 17.1021Z" fill="#86B1F2"/>
<path d="M166.307 202.955C178.201 226.169 214.773 247.892 228.503 247.892C243.757 247.892 258.088 271.006 258.088 271.006H264.098C270.107 271.006 262.249 294.12 259.013 312.149C255.777 330.178 275.886 336.419 286.749 347.28C297.613 358.142 287.905 405.296 296.919 414.308C305.933 423.326 329.51 439.964 332.514 436.964C335.519 433.958 322.344 406.453 331.128 392.58C339.911 378.713 345.921 363.461 355.629 346.353C365.336 329.251 387.063 331.564 389.374 307.987C391.686 284.409 359.326 280.252 340.373 280.252C321.42 280.252 319.571 263.609 302.929 257.133C286.287 250.664 267.796 265.922 263.324 265.922C258.852 265.922 248.843 243.73 240.059 239.109C231.276 234.483 216.021 237.26 212.323 225.237C208.625 213.219 234.05 211.833 255.777 211.833C277.504 211.833 278.891 206.749 278.891 193.804C278.891 180.859 303.391 173.925 323.731 153.588C344.071 133.246 321.882 111.518 309.401 115.216C296.919 118.915 269.37 125.993 274.918 113.053C280.466 100.108 318.184 100.886 318.184 100.886C318.185 100.886 318.282 100.838 330.666 94.4158C343.147 87.9459 297.382 82.9735 293.683 82.9735C289.985 82.9735 300.617 70.3748 295.532 65.2905C290.447 60.2063 283.051 76.85 274.268 76.85C265.484 76.85 252.079 80.0849 241.446 82.8562C240.6 83.0801 239.586 82.9789 238.437 82.6111C205.184 115.648 180.054 156.844 166.307 202.955Z" fill="#5886D8"/>
<path d="M273.806 68.9893C287.211 62.0557 276.117 54.6584 276.117 54.6584C276.117 54.6584 274.284 54.5892 271.343 54.5359C264.011 59.8866 256.944 65.5837 250.167 71.5953C258.298 73.1142 266.98 72.5173 273.806 68.9893Z" fill="#5886D8"/>
<path d="M319.571 61.1283C319.571 61.1283 299.693 75.459 304.778 75.459C309.863 75.459 324.887 78.4648 334.364 87.9459C343.841 97.4215 344.071 96.2651 341.298 106.434C338.524 116.602 382.209 101.579 375.968 95.3378C369.728 89.097 369.728 89.097 369.728 89.097C369.728 89.097 361.638 83.1654 359.326 72.3787C357.015 61.5919 319.571 61.1283 319.571 61.1283Z" fill="#5886D8"/>
<path d="M392.148 38.9419C392.148 38.9419 354.241 40.7912 354.241 49.5741C354.241 58.3569 354.241 58.357 354.241 58.357C354.241 58.357 373.03 58.357 376.58 68.5255C380.129 78.6993 380.129 78.6993 380.129 78.6993C380.129 78.6993 391.921 91.1808 389.492 107.819C387.063 124.463 387.525 132.782 401.394 132.782C415.262 132.782 429.129 98.578 446.695 93.9521C464.261 89.3315 467.959 81.4706 470.736 61.1283C473.507 40.7912 392.148 38.9419 392.148 38.9419Z" fill="#5886D8"/>
<path d="M608.843 200.775C608.843 200.775 491.164 248.729 477.526 262.367C463.893 276.005 475.218 290.101 475.218 307.209C475.218 324.311 521.446 319.227 528.843 311.829C536.24 304.432 542.246 319.69 549.18 345.117C556.113 370.538 532.541 417.751 547.33 420.496C562.125 423.241 616.213 373.773 628.695 338.178C641.176 302.583 643.484 267.451 620.834 249.886C598.184 232.32 608.843 200.775 608.843 200.775Z" fill="#5886D8"/>
<path d="M635.799 79.2909C616.986 81.6678 598.082 85.4623 596.937 91.1808C594.645 102.644 594.624 102.735 594.624 102.735C594.624 102.735 566.426 102.735 550.709 102.735C534.993 102.735 522.975 117.066 522.975 125.849C522.975 134.631 548.631 134.866 542.39 141.107C536.149 147.347 511.186 146.42 504.946 152.661L498.705 158.902C498.705 158.902 483.681 184.094 473.971 189.642C464.261 195.19 461.026 191.955 464.261 195.19C467.501 198.425 493.386 202.587 504.018 191.955C504.018 191.955 522.858 179.937 528.288 179.01C533.719 178.088 534.412 182.133 537.881 183.289C541.345 184.44 548.279 186.524 548.279 188.491C548.279 190.452 546.781 194.033 547.821 194.033C548.86 194.033 552.788 187.68 552.788 186.641C552.788 185.597 549.435 184.328 549.435 184.328L553.944 184.787V183.865C553.944 183.865 547.703 182.825 546.201 181.322C544.698 179.82 544.122 177.507 542.736 176.121C541.345 174.735 545.044 168.958 546.547 168.958C548.05 168.958 556.833 178.898 560.878 178.898H564.923C564.923 178.898 571.974 180.512 577.985 184.44C583.943 188.341 583.991 188.373 583.991 188.373C583.991 188.373 597.4 199.117 597.4 203.397C597.4 207.671 604.025 238.459 612.035 236.78C619.986 235.112 638.234 220.307 648.712 214.759C659.189 209.211 662.579 208.289 685.693 210.752C693.511 211.588 703.834 213.656 714.685 215.218C701.537 162.563 673.707 115.723 635.799 79.2909Z" fill="#5886D8"/>
<path d="M123.274 227.203C122.169 214.541 120.545 196.25 110.242 187.681C101.903 180.747 91.6047 180.145 81.6131 184.787C53.3001 197.934 67.2312 218.064 31.5865 247.317C20.5114 256.403 16.6838 258.626 8.5261 270.43C-2.88897 286.952 -2.56602 305.732 9.56906 316.626C22.1577 327.924 57.5242 336.041 70.1981 335.14C106.979 332.518 117.882 294.013 120.466 279.219C123.048 264.419 124.594 242.36 123.274 227.203Z" fill="#13375B"/>
<path d="M56.129 298.953L37.4931 289.515C37.4931 289.515 17.7855 337.565 15.3467 351.597C14.4626 356.692 18.0477 409.155 19.5351 419.734C19.0384 440.161 26.2875 444.825 30.178 451.119C30.178 451.119 38.4903 455.414 38.8223 454.785C39.2401 454.018 38.4258 452.968 37.1414 452.067C36.6431 451.726 35.9769 451.556 35.4381 451.204C34.9201 450.858 34.4143 450.197 33.9501 449.882C32.8427 449.131 32.0385 448.875 32.0385 448.875C32.0385 448.875 31.5055 447.532 30.6827 446.13C30.0927 445.112 29.1808 443.983 29.0508 443.689C28.3068 441.915 29.1734 442.522 29.1734 442.522C30.0223 443.913 34.7101 449.573 34.7101 449.573C34.7101 449.573 43.6406 456.485 43.7696 455.777C43.8191 455.441 43.575 454.263 42.1377 452.414C41.7503 451.918 40.6742 451.3 40.1413 450.708C39.7309 450.261 39.3659 449.637 38.8447 449.12C38.2952 448.555 37.4889 448.214 36.9319 447.633C36.0835 446.775 35.7477 445.619 35.2121 444.905C33.0324 442.069 32.2394 439.884 33.1512 440.79C34.5022 442.149 36.5455 447.676 42.7564 452.089C43.8085 452.808 44.5168 453.075 44.6212 452.632C44.7038 452.296 44.6633 451.007 43.8815 449.866C43.3416 449.094 42.2251 448.635 41.5019 447.644C41.0798 447.068 40.8373 446.285 40.4062 445.661C38.6864 443.189 37.92 444.484 36.3169 434.832C37.2043 435.226 37.9989 435.829 38.3778 436.143C39.0605 436.729 42.3173 442.33 43.4972 441.115C44.6692 439.884 37.9365 426.966 37.9365 426.966L32.3289 419.638C33.5893 369.856 35.113 357.934 35.4365 357.529L56.129 298.953Z" fill="#B35E4B"/>
<path d="M89.3355 457.941L101.319 563.921C101.319 563.921 95.4622 586.337 96.1689 592.7C96.875 599.069 109.193 682.597 109.193 682.597L108.638 687.18L108.338 700.775L154.383 701.116C154.383 701.116 144.679 696.815 131.103 688.31C130.101 687.681 126.822 685.608 126.259 681.605C122.633 655.864 130.772 570.061 130.772 570.061L136.419 458.282L89.3355 457.941Z" fill="#B35E4B"/>
<path d="M104.658 673.803L129.456 672.348C129.456 672.348 130.909 576.504 134.297 555.687C137.686 534.876 139.66 465.354 136.234 438.547C133.285 415.476 122.233 378.585 122.233 378.585L83.956 386.265L76.2097 388.2L97.0248 562.951C97.0248 562.951 95.0971 574.751 94.1287 586.854C93.1598 598.951 104.658 673.803 104.658 673.803Z" fill="#E8B75F"/>
<path d="M53.047 477.451C50.4638 478.101 46.4891 569.059 44.3504 573.093C30.7935 598.647 27.5702 676.35 27.5702 676.35L21.9781 687.233L23.2609 697.716C23.2609 697.716 33.3798 703.461 40.4797 699.587L39.3792 689.088L38.5408 675.061L72.7477 578.252L91.464 479.508L53.047 477.451Z" fill="#B35E4B"/>
<path d="M108.117 704.266H155.651C157.41 704.106 157.838 702.688 157.229 701.809C155.973 700.008 146.701 695.675 140.469 692.797C129.537 693.937 110.318 689.477 108.594 686.967C107.599 691.992 107.139 704.053 108.117 704.266Z" fill="#13375B"/>
<path d="M22.0052 687.206C22.0052 687.206 25.8999 695.318 30.4656 694.977C35.0308 694.636 39.3503 689.029 39.3503 689.029C39.3503 689.029 41.0632 696.906 40.2638 701.244C39.4659 705.577 32.9603 710.027 28.5103 708.087C24.0586 706.147 18.0113 696.107 22.0052 687.206Z" fill="#13375B"/>
<path d="M73.2219 366.967C73.2219 366.967 72.1651 375.436 71.0438 377.131C68.0337 381.693 59.7513 396.029 55.1307 407.204C50.9663 417.277 49.6254 425.538 48.0218 434.859C43.027 463.899 44.6349 552.484 44.6349 552.484C44.6349 552.484 35.6788 571.606 32.0474 597.017C28.4175 622.433 25.7459 664.482 25.7459 664.482L44.2603 669.198L81.9067 556.353C81.9067 556.353 99.8077 457.546 105.617 444.473C111.425 431.405 122.355 378.34 122.355 378.34L73.2219 366.967Z" fill="#F7CC7F"/>
<path d="M44.7362 534.214C44.7432 534.231 44.7467 534.231 44.7525 534.208L44.7362 534.214Z" fill="#F47458"/>
<path d="M234.498 173.824C234.078 169.918 223.281 166.773 220.106 165.835C216.93 164.897 218.989 165.659 215.466 166.795C215.038 166.928 204.37 183.193 204.37 183.193C201.004 188.491 170.145 235.656 159.75 242.813C149.132 250.125 106.822 262.884 106.822 262.884L104.886 289.893C104.886 289.893 163.302 269.871 175.804 259.132C186.157 250.243 206.797 207.442 216.638 191.667L216.648 191.672C219.21 188.368 234.917 177.731 234.498 173.824Z" fill="#B35E4B"/>
<path d="M85.5383 254.991C59.5388 255.359 49.5445 251.346 29.3828 298.778C25.8761 307.028 23.8717 312.981 23.8179 313.13C23.8179 313.13 41.5616 321.097 47.9159 323.661C47.9159 323.661 54.1609 304.549 56.7355 306.766C62.5435 311.771 72.3464 369.254 70.8942 377.099C70.8942 377.099 100.602 383.009 122.567 378.399C122.567 378.399 125.714 321.833 126.803 319.275C127.893 316.716 134.547 305.519 129.103 292.846C128.13 290.581 125.708 283.807 127.408 283.344C140.72 279.704 160.809 269.695 160.809 269.695L151.309 245.59C151.309 245.59 121.903 252.289 111.919 253.547C103.218 254.645 94.4401 254.874 85.6817 254.986C85.6321 254.986 85.5858 254.991 85.5383 254.991Z" fill="#FF5A00"/>
<path d="M86.5438 234.382C86.5438 234.382 85.8222 250.834 83.7309 256.894C81.6402 262.948 88.1245 284.921 101.239 288.124C114.351 291.332 101.469 262.026 101.686 255.652C101.903 249.278 106.109 230.391 106.109 230.391L86.5438 234.382Z" fill="#B35E4B"/>
<path d="M104.123 239.898C105.15 234.702 106.109 230.39 106.109 230.39L86.544 234.382C86.544 234.382 86.3958 237.75 86.0409 241.993C93.3758 245.387 99.6426 243.869 104.123 239.898Z" fill="#8F4533"/>
<path d="M90.4866 189.45C90.4866 189.45 82.8006 191.592 78.3707 199.155C73.9404 206.717 71.7292 228.44 88.0394 237.713C104.349 246.981 115.926 232.128 115.434 218.234C114.939 204.34 111.036 185.959 90.4866 189.45Z" fill="#B35E4B"/>
<path d="M118.831 213.709C117.652 217.126 115.08 219.343 113.089 218.655C111.1 217.962 110.442 214.637 111.622 211.221C112.803 207.804 115.373 205.587 117.364 206.275C119.355 206.962 120.014 210.293 118.831 213.709Z" fill="#B35E4B"/>
<path d="M92.7948 188.874C92.7948 188.874 84.0023 211.599 75.3969 214.018C66.7926 216.443 67.4801 227.619 67.4801 227.619C67.4801 227.619 66.378 201.782 74.2378 195.451C82.0981 189.119 92.7948 188.874 92.7948 188.874Z" fill="#13375B"/>
<path d="M79.0881 218.463C80.4141 222.018 79.5443 225.621 77.144 226.521C74.7425 227.417 71.7202 225.264 70.3942 221.714C69.0683 218.159 69.9364 214.557 72.3373 213.656C74.7382 212.761 77.7606 214.914 79.0881 218.463Z" fill="#B35E4B"/>
<path d="M277.076 104.787L216.673 181.264L216.619 181.328C215.494 182.756 213.423 183.002 211.997 181.872C210.569 180.747 210.326 178.674 211.454 177.246C211.479 177.214 211.514 177.176 211.541 177.145L275.113 103.21L275.134 103.188C275.587 102.661 276.383 102.597 276.911 103.05C277.423 103.492 277.493 104.259 277.076 104.787Z" fill="#F7CC7F"/>
<path d="M226.836 168.09L216.91 180.656L216.848 180.736C215.59 182.325 213.343 182.655 211.671 181.578C211.9 181.935 212.189 182.282 212.539 182.559C214.232 183.897 216.69 183.609 218.029 181.914L218.09 181.834L228.422 168.756C227.901 168.521 227.367 168.303 226.836 168.09Z" fill="#8F4533"/>
<path d="M226.482 162.499C226.482 162.499 237.086 171.9 234.42 175.833C231.473 180.177 227.708 182.516 227.505 181.211C227.304 179.905 229.781 173.568 229.781 173.568C229.781 173.568 226.425 169.321 225.767 167.024C225.111 164.727 224.619 162.361 226.482 162.499Z" fill="#B35E4B"/>
<path d="M221.525 167.514C221.525 167.514 214.852 170.387 214.473 169.561C214.093 168.74 215.466 166.795 215.466 166.795C215.466 166.795 224.447 159.973 224.773 162.419C225.101 164.871 221.525 167.514 221.525 167.514Z" fill="#B35E4B"/>
<path d="M233.319 165.835C233.319 165.835 227.553 159.296 227.328 161.481C227.056 164.114 231.865 171.735 234.226 171.735C236.586 171.735 236.586 169.465 233.319 165.835Z" fill="#B35E4B"/>
</svg>
